# AST/ASF file generated using VICON BodyLanguage
# -----------------------------------------------
:version 1.10
:name VICON
:units
  mass 1.0
  length 0.45
  angle deg
:documentation
   .ast/.asf automatically generated from VICON data using
   VICON BodyBuilder and BodyLanguage model FoxedUp or BRILLIANT.MOD
:root
   order TX TY TZ RX RY RZ
   axis XYZ
   position 0 0 0  
   orientation 0 0 0 
:bonedata
  begin
     id 1 
     name lhipjoint
     direction 0.625129 -0.738222 0.253461 
     length 2.5165 
     axis 0 0 0  XYZ
  end
  begin
     id 2 
     name lfemur
     direction 0.34202 -0.939693 0  
     length 7.54288  
     axis 0 0 20  XYZ
    dof rx ry rz
    limits (-160.0 20.0)
           (-70.0 70.0)
           (-60.0 70.0)
  end
  begin
     id 3 
     name ltibia
     direction 0.34202 -0.939693 0   
     length 7.71864   
     axis 0 0 20   XYZ
    dof rx
    limits (-10.0 170.0)
  end
  begin
     id 4 
     name lfoot
     direction 0.0772037 -0.212115 0.97419   
     length 2.18429   
     axis -90 7.62852e-016 20   XYZ
    dof rx rz
    limits (-45.0 90.0)
           (-70.0 20.0)
  end
  begin
     id 5 
     name ltoes
     direction 1.53513e-011 -4.21834e-011 1   
     length 1.09718   
     axis -90 7.62852e-016 20   XYZ
    dof rx
    limits (-90.0 20.0)
  end
  begin
     id 6 
     name rhipjoint
     direction -0.621946 -0.740623 0.254285   
     length 2.50835  
     axis 0 0 0  XYZ 
  end
  begin
     id 7 
     name rfemur
     direction -0.34202 -0.939693 0   
     length 7.43366   
     axis 0 0 -20   XYZ
    dof rx ry rz
    limits (-160.0 20.0)
           (-70.0 70.0)
           (-70.0 60.0)
  end
  begin
     id 8 
     name rtibia
     direction -0.34202 -0.939693 0   
     length 7.77122   
     axis 0 0 -20   XYZ
    dof rx
    limits (-10.0 170.0)
 end
 begin
     id 9 
     name rfoot
     direction -0.082694 -0.2272 0.970331   
     length 2.2293  
     axis -90 -7.62852e-016 -20   XYZ
    dof rx rz
    limits (-45.0 90.0)
           (-20.0 70.0)
  end
  begin
     id 10 
     name rtoes
     direction -1.53565e-011 -4.21695e-011 1   
     length 1.1178   
     axis -90 -7.62852e-016 -20   XYZ
    dof rx
    limits (-90.0 20.0)
  end
  begin
     id 11 
     name lowerback
     direction -0.000695208 0.988391 -0.151929   
     length 1.95077   
     axis 0 0 0   XYZ
    dof rx ry rz
    limits (-20.0 45.0)
           (-30.0 30.0)
           (-30.0 30.0)
  end
  begin
     id 12 
     name upperback
     direction -0.00268925 0.999885 -0.0149203   
     length 1.96246   
     axis 0 0 0   XYZ
    dof rx ry rz
    limits (-20.0 45.0)
           (-30.0 30.0)
           (-30.0 30.0)
  end
  begin
     id 13 
     name thorax
     direction -0.000848408 0.998481 0.0550912   
     length 2.00867   
     axis 0 0 0   XYZ
    dof rx ry rz
    limits (-20.0 45.0)
           (-30.0 30.0)
           (-30.0 30.0)
  end
  begin
     id 14 
     name lowerneck
     direction -0.00577709 0.998999 0.0443608   
     length 1.75762   
     axis 0 0 0   XYZ
    dof rx ry rz
    limits (-20.0 45.0)
           (-30.0 30.0)
           (-30.0 30.0)
  end
  begin
     id 15 
     name upperneck
     direction 0.0320945 0.999136 0.0264105   
     length 1.72601   
     axis 0 0 0   XYZ
    dof rx ry rz
    limits (-20.0 45.0)
           (-30.0 30.0)
           (-30.0 30.0)
  end
  begin
     id 16
     name head
     direction 0.0120552 0.999916 0.00480151  
     length 1.79973  
     axis 0 0 0   XYZ
    dof rx ry rz
    limits (-20.0 45.0)
           (-30.0 30.0)
           (-30.0 30.0)
  end
  begin
     id 17 
     name lclavicle
     direction 0.909 0.371533 -0.188897  
     length 3.47956  
     axis 0 0 0   XYZ
    dof ry rz
    limits (-20.0 10.0)
           (0.0 20.0)
  end
  begin
     id 18 
     name lhumerus
     direction 1 -4.48963e-011 -6.48352e-028   
     length 5.52302   
     axis 180 -30 -90   XYZ
    dof rx ry rz
    limits (-60.0 90.0)
           (-90.0 90.0)
           (-90.0 90.0)
  end
  begin
     id 19
     name lradius
     direction 1 -4.48968e-011 -4.78536e-027   
     length 3.58675   
     axis 180 -30 -90   XYZ
    dof rx
    limits (-10.0 170.0)
  end
  begin
     id 20
     name lwrist
     direction 1 -4.48942e-011 -9.9435e-027   
     length 1.79337   
     axis 8.54312e-015 90 90   XYZ
    dof ry
    limits (-180.0 0.0)
 end
  begin
     id 21 
     name lhand
     direction 1 -4.4904e-011 -1.9887e-026   
     length 0.536412   
     axis 1.26896e-014 90 90   XYZ
    dof rx rz
    limits (-90.0 90.0)
           (-45.0 45.0)
  end
  begin
     id 22 
     name lfingers
     direction 1 -4.48893e-011 -3.9774e-026   
     length 0.432469   
     axis 2.53792e-014 90 90   XYZ
    dof rx
    limits (0.0 90.0)
  end
  begin
     id 23
     name lthumb
     direction 0.707107 -6.34934e-011 0.707107   
     length 0.620942   
     axis -90 45 2.85299e-015   XYZ
    dof rx rz
    limits (-45.0 45.0)
           (-45.0 45.0)
  end
  begin
     id 24 
     name rclavicle
     direction -0.89595 0.416672 -0.153813   
     length 3.44099  
     axis 0 0 0   XYZ 
    dof ry rz
    limits (-10.0 20.0)
           (-20.0 0.0)
  end
  begin
     id 25 
     name rhumerus
     direction -1 -4.48952e-011 5.57804e-028  
     length 5.8478   
     axis 180 30 90   XYZ
    dof rx ry rz
    limits (-90.0 60.0)
           (-90.0 90.0)
           (-90.0 90.0)
  end
  begin
     id 26 
     name rradius
     direction -1 -4.48967e-011 -7.93646e-027   
     length 3.62717   
     axis 180 30 90   XYZ
    dof rx
    limits (-10.0 170.0)
  end
  begin
     id 27 
     name rwrist
     direction -1 -4.49008e-011 -9.9435e-027   
     length 1.81359   
     axis 8.54312e-015 -90 -90   XYZ
    dof ry
    limits (-180.0 0.0)
  end
  begin
     id 28
     name rhand
     direction -1 -4.48812e-011 -1.9887e-026   
     length 0.650516   
     axis 1.26896e-014 -90 -90   XYZ
    dof rx rz
    limits (-90.0 90.0)
           (-45.0 45.0)
  end
  begin
     id 29
     name rfingers
     direction -1 -4.49228e-011 -3.9774e-026   
     length 0.524463   
     axis 2.53792e-014 -90 -90   XYZ
    dof rx
    limits (0.0 90.0)
  end
  begin
     id 30
     name rthumb
     direction -0.707107 -6.34912e-011 0.707107   
     length 0.753027   
     axis -90 -45 -2.85299e-015   XYZ
    dof rx rz
    limits (-45.0 45.0)
           (-45.0 45.0)
  end
:hierarchy
  begin
    root lhipjoint rhipjoint lowerback
    lhipjoint lfemur
    lfemur ltibia
    ltibia lfoot
    lfoot ltoes
    rhipjoint rfemur
    rfemur rtibia
    rtibia rfoot
    rfoot rtoes
    lowerback upperback
    upperback thorax
    thorax lowerneck lclavicle rclavicle
    lowerneck upperneck
    upperneck head
    lclavicle lhumerus
    lhumerus lradius
    lradius lwrist
    lwrist lhand lthumb
    lhand lfingers
    rclavicle rhumerus
    rhumerus rradius
    rradius rwrist
    rwrist rhand rthumb
    rhand rfingers
  end

#!OML:ASF F:\VICON\USERDATA\INSTALL\rory3\rory3.ASF
:FULLY-SPECIFIED
:DEGREES
1319
root -9.04012 17.9568 45.9466 -184.052 198.398 -180.102
lowerback 9.6253 -2.02005 -6.55325
upperback 1.96515 -3.49514 -3.54028
thorax -3.17711 -1.69747 0.414333
lowerneck 23.0366 -11.7237 -4.19018
upperneck -13.0028 -14.3654 17.4628
head -6.03378 -8.52869 7.93808
rclavicle -4.34344e-014 -2.70347e-014
rhumerus -26.3253 -9.06071 -81.5551
rradius 25.3927
rwrist 10.6578
rhand -22.9862 13.4285
rfingers 7.12502
rthumb 3.45642 -16.5232
lclavicle -4.34344e-014 -2.70347e-014
lhumerus -26.6816 16.7495 51.8635
lradius 6.00347
lwrist 2.22249
lhand -43.7613 19.852
lfingers 7.12502
lthumb -16.5914 49.1628
rfemur -12.5409 7.68443 19.0532
rtibia 50.3646
rfoot -14.4746 -8.11097
rtoes -14.6986
lfemur -8.86582 -8.15574 -18.0877
ltibia 20.6871
lfoot -4.16376 4.47705
ltoes -3.83513
1320
root -9.04507 17.9332 45.9441 -182.901 200.712 -183.751
lowerback 10.2061 -1.68336 -3.92459
upperback 1.77728 -2.77824 -2.3766
thorax -3.79944 -1.3469 0.1027
lowerneck 22.9503 -11.6998 -4.37783
upperneck -13.0815 -14.3701 17.5984
head -6.01895 -8.5355 8.00613
rclavicle -3.33958e-014 -3.18055e-015
rhumerus -26.7613 -8.80541 -81.3501
rradius 25.2676
rwrist 11.0524
rhand -22.916 14.2286
rfingers 7.12502
rthumb 3.52425 -15.722
lclavicle -3.33958e-014 -3.18055e-015
lhumerus -26.3792 16.5744 52.3259
lradius 6.96943
lwrist 2.70769
lhand -43.1761 19.1201
lfingers 7.12502
lthumb -16.0279 48.4771
rfemur -13.3685 9.4529 23.5759
rtibia 50.0955
rfoot -14.322 -10.5947
rtoes -12.7999
lfemur -8.77871 -7.67575 -13.9493
ltibia 20.924
lfoot -4.39314 5.91238
ltoes -3.45357
1321
root -8.98864 17.9634 46.0723 -184.348 199.524 -180.512
lowerback 9.55741 -2.16655 -6.15832
upperback 2.17797 -3.6238 -3.35482
thorax -2.92277 -1.77497 0.394564
lowerneck 22.87 -11.6888 -4.59962
upperneck -13.4675 -14.3481 17.9187
head -6.08914 -8.55269 8.16166
rclavicle 3.18055e-015 7.95139e-015
rhumerus -26.9789 -8.58328 -81.1797
rradius 25.1577
rwrist 11.3994
rhand -22.7543 14.9802
rfingers 7.12502
rthumb 3.68037 -14.9677
lclavicle 3.18055e-015 7.95139e-015
lhumerus -25.8599 16.4563 52.8506
lradius 8.0526
lwrist 3.22623
lhand -41.3299 22.2888
lfingers 7.12502
lthumb -14.2495 51.7799
rfemur -12.726 6.30627 19.6172
rtibia 49.891
rfoot -15.8127 -10.1637
rtoes -11.9125
lfemur -8.00082 -9.43075 -18.1246
ltibia 21.3537
lfoot -5.21188 6.77786
ltoes -3.45505
1322
root -8.96756 17.9655 46.0761 -183.834 200.261 -181.209
lowerback 9.93407 -2.13238 -5.80172
upperback 1.92926 -3.57602 -3.02794
thorax -3.39443 -1.73598 0.554581
lowerneck 23.0326 -11.708 -4.82905
upperneck -14.0428 -14.3403 18.2981
head -6.25155 -8.59272 8.37632
rclavicle 1.41137e-014 9.54166e-015
rhumerus -27.4251 -8.61866 -80.8487
rradius 25.106
rwrist 12.1791
rhand -22.578 15.3997
rfingers 7.12502
rthumb 3.85061 -14.5453
lclavicle 1.41137e-014 9.54166e-015
lhumerus -25.2537 16.1552 53.482
lradius 8.7464
lwrist 3.02775
lhand -40.2109 25.4315
lfingers 7.12502
lthumb -13.171 54.9955
rfemur -13.7055 6.27587 20.5952
rtibia 49.5261
rfoot -16.1371 -11.1871
rtoes -10.9741
lfemur -8.55649 -8.82515 -17.3083
ltibia 21.8698
lfoot -5.40295 6.82927
ltoes -3.72948
1323
root -8.94559 17.9573 46.102 -183.59 201.007 -181.449
lowerback 10.0524 -2.06203 -5.70918
upperback 1.7702 -3.48547 -2.87683
thorax -3.62672 -1.68272 0.658553
lowerneck 22.7982 -11.7987 -4.82862
upperneck -13.8114 -14.5124 18.1351
head -6.12873 -8.64785 8.2915
rclavicle -1.19271e-015 -1.59028e-015
rhumerus -27.7493 -9.18493 -80.3717
rradius 24.6956
rwrist 13.5711
rhand -22.7256 15.8935
rfingers 7.12502
rthumb 3.70812 -14.054
lclavicle -1.19271e-015 -1.59028e-015
lhumerus -24.6473 15.7623 54.0822
lradius 9.92573
lwrist 3.05627
lhand -37.5792 30.9331
lfingers 7.12502
lthumb -10.6334 60.644
rfemur -14.3886 6.16616 21.0044
rtibia 49.1368
rfoot -16.9811 -11.6472
rtoes -10.2071
lfemur -8.37497 -8.26781 -17.0848
ltibia 21.4192
lfoot -5.13508 7.08289
ltoes -4.17213
1324
root -8.92573 17.9576 46.1523 -183.597 201.572 -181.612
lowerback 9.59681 -2.0441 -5.45236
upperback 2.09319 -3.38199 -2.87896
thorax -3.05694 -1.65418 0.473897
lowerneck 21.0943 -11.9493 -4.41336
upperneck -11.6346 -14.9843 16.7579
head -5.24888 -8.67068 7.50171
rclavicle 6.08281e-014 -3.18055e-015
rhumerus -27.6512 -9.73952 -80.1499
rradius 24.2866
rwrist 14.6745
rhand -22.8475 16.9414
rfingers 7.12502
rthumb 3.5904 -13.0081
lclavicle 6.08281e-014 -3.18055e-015
lhumerus -23.484 15.5773 54.8435
lradius 10.0679
lwrist 2.28742
lhand -38.8789 28.3615
lfingers 7.12502
lthumb -11.8868 58.0041
rfemur -14.6373 5.8473 21.2677
rtibia 48.6265
rfoot -17.6633 -11.9863
rtoes -10.3064
lfemur -8.4104 -7.94989 -17.0522
ltibia 22.1333
lfoot -5.6768 7.29228
ltoes -3.88564
1325
root -8.90337 17.9683 46.219 -183.774 201.818 -181.417
lowerback 9.27588 -2.12446 -5.40657
upperback 2.24379 -3.45552 -2.98364
thorax -2.72824 -1.70196 0.330318
lowerneck 21.0945 -12.0645 -4.60593
upperneck -11.8603 -15.1339 17.1436
head -5.25506 -8.77753 7.6717
rclavicle 3.57812e-015 -1.59028e-014
rhumerus -28.0528 -9.83966 -79.9533
rradius 24.1648
rwrist 15.3114
rhand -22.8224 17.4361
rfingers 7.12502
rthumb 3.61461 -12.513
lclavicle 3.57812e-015 -1.59028e-014
lhumerus -22.6787 15.2264 55.5268
lradius 10.644
lwrist 2.66733
lhand -38.8135 28.6434
lfingers 7.12502
lthumb -11.8239 58.2896
rfemur -14.7106 5.18484 21.0557
rtibia 48.0788
rfoot -18.5105 -11.9202
rtoes -11.8753
lfemur -8.01013 -7.99026 -17.4977
ltibia 22.2398
lfoot -6.02842 7.62276
ltoes -3.51848
1326
root -8.87751 17.9545 46.1613 -182.51 202.684 -182.63
lowerback 10.0355 -2.02843 -4.81398
upperback 1.58587 -3.33536 -2.47741
thorax -3.84422 -1.60915 0.561556
lowerneck 20.9877 -12.1771 -4.74346
upperneck -11.6389 -15.3407 17.2361
head -5.12443 -8.87499 7.70235
rclavicle -5.4467e-014 -2.38542e-014
rhumerus -28.6898 -10.0113 -79.6011
rradius 24.0093
rwrist 16.2374
rhand -22.9052 17.5685
rfingers 7.12502
rthumb 3.53464 -12.3819
lclavicle -5.4467e-014 -2.38542e-014
lhumerus -22.1792 14.7519 56.1679
lradius 11.2002
lwrist 2.77709
lhand -38.5275 27.0194
lfingers 7.12502
lthumb -11.548 56.6812
rfemur -16.5706 5.96835 22.6064
rtibia 47.5528
rfoot -18.7596 -12.2583
rtoes -12.8255
lfemur -9.3016 -7.12905 -15.9577
ltibia 22.3635
lfoot -5.62809 7.69307
ltoes -3.53759
